<svg width="97" height="125" viewBox="0 0 97 125" fill="none" xmlns="http://www.w3.org/2000/svg">
<g clip-path="url(#clip0_207_1399)">
<path d="M28.4864 5.67523H22.7891V73.8504H28.4864V5.67523Z" fill="#DE79F1"/>
<path d="M39.9541 0H28.5596V5.6752H39.9541V0Z" fill="#DE79F1"/>
<path d="M45.6514 5.67523H39.9541V56.8248H45.6514V5.67523Z" fill="#DE79F1"/>
<path d="M57.0459 28.4488H45.6514V34.124H57.0459V28.4488Z" fill="#DE79F1"/>
<path d="M62.7432 39.7992H57.0459V56.8248H62.7432V39.7992Z" fill="#DE79F1"/>
<path d="M74.1378 34.124H57.0459V39.7992H74.1378V34.124Z" fill="#DE79F1"/>
<path d="M79.835 45.4744H74.1377V62.5H79.835V45.4744Z" fill="#DE79F1"/>
<path d="M85.5323 39.7992H74.1377V45.4744H85.5323V39.7992Z" fill="#DE79F1"/>
<path d="M91.3028 45.4744H85.6055V51.1496H91.3028V45.4744Z" fill="#DE79F1"/>
<path d="M97 51.1496H91.3027V90.9488H97V51.1496Z" fill="#DE79F1"/>
<path d="M91.3028 90.9488H85.6055V107.974H91.3028V90.9488Z" fill="#DE79F1"/>
<path d="M85.5325 107.974H79.8352V125H85.5325V107.974Z" fill="#DE79F1"/>
<path d="M79.9082 119.325H28.5596V125H79.9082V119.325Z" fill="#DE79F1"/>
<path d="M22.7891 56.8248H17.0918V62.5H22.7891V56.8248Z" fill="#DE79F1"/>
<path d="M17.0919 51.1496H0V56.8248H17.0919V51.1496Z" fill="#DE79F1"/>
<path d="M5.69729 56.8248H0V68.1752H5.69729V56.8248Z" fill="#DE79F1"/>
<path d="M11.3946 68.1752H5.69727V73.8504H11.3946V68.1752Z" fill="#DE79F1"/>
<path d="M17.0918 73.8504H11.3945V85.2008H17.0918V73.8504Z" fill="#DE79F1"/>
<path d="M22.7891 85.2736H17.0918V96.624H22.7891V85.2736Z" fill="#DE79F1"/>
<path d="M28.4864 96.624H22.7891V107.974H28.4864V96.624Z" fill="#DE79F1"/>
<path d="M34.2569 107.974H28.5596V119.325H34.2569V107.974Z" fill="#DE79F1"/>
</g>
<defs>
<clipPath id="clip0_207_1399">
<rect width="97" height="125" fill="white"/>
</clipPath>
</defs>
</svg>
