<svg width="119" height="51" viewBox="0 0 119 51" fill="none" xmlns="http://www.w3.org/2000/svg">
<path d="M2.624 12.904L0.512 14.44C0.757333 14.9947 1.12 15.5013 1.6 15.96C2.08 16.408 2.64533 16.76 3.296 17.016C3.95733 17.2827 4.672 17.416 5.44 17.416C5.984 17.416 6.51733 17.336 7.04 17.176C7.56267 17.0267 8.02667 16.8027 8.432 16.504C8.848 16.1947 9.17333 15.8107 9.408 15.352C9.65333 14.8933 9.776 14.3653 9.776 13.768C9.776 13.32 9.70667 12.9147 9.568 12.552C9.42933 12.1893 9.232 11.8693 8.976 11.592C8.72 11.304 8.416 11.0587 8.064 10.856C7.72267 10.6427 7.344 10.4613 6.928 10.312C6.448 10.1413 6.02133 9.98667 5.648 9.848C5.28533 9.69867 4.99733 9.544 4.784 9.384C4.58133 9.21333 4.48 9.00533 4.48 8.76C4.48 8.54667 4.57067 8.376 4.752 8.248C4.93333 8.12 5.17867 8.056 5.488 8.056C5.73333 8.056 5.97333 8.104 6.208 8.2C6.44267 8.296 6.66133 8.43467 6.864 8.616C7.07733 8.78667 7.264 9.00533 7.424 9.272L9.76 7.976C9.55733 7.592 9.26933 7.21333 8.896 6.84C8.52267 6.456 8.048 6.14133 7.472 5.896C6.896 5.64 6.21333 5.512 5.424 5.512C4.66667 5.512 3.97867 5.64 3.36 5.896C2.74133 6.152 2.24533 6.52533 1.872 7.016C1.49867 7.496 1.312 8.088 1.312 8.792C1.312 9.34667 1.41333 9.82667 1.616 10.232C1.82933 10.6373 2.09067 10.9787 2.4 11.256C2.72 11.5333 3.05067 11.7627 3.392 11.944C3.73333 12.1147 4.04267 12.2533 4.32 12.36C4.88533 12.5733 5.32267 12.7547 5.632 12.904C5.952 13.0533 6.176 13.2027 6.304 13.352C6.432 13.4907 6.496 13.6667 6.496 13.88C6.496 14.1787 6.384 14.408 6.16 14.568C5.936 14.7173 5.65333 14.792 5.312 14.792C4.96 14.792 4.61867 14.7173 4.288 14.568C3.95733 14.4187 3.65333 14.2053 3.376 13.928C3.09867 13.64 2.848 13.2987 2.624 12.904ZM13.495 15.192H19.415L19.335 12.904H13.591L13.495 15.192ZM16.423 10.392L17.911 13.752L17.735 14.552L19.015 17H22.535L16.423 5.048L10.327 17H13.847L15.143 14.44L14.951 13.752L16.423 10.392ZM31.1404 5.8V11.496L23.6364 5.24V17H26.6124V11.304L34.1164 17.56V5.8H31.1404ZM35.2976 8.568H38.4336V17H41.5376V8.568H44.6736V5.8H35.2976V8.568ZM45.8551 5.8V17H49.0231V5.8H45.8551ZM53.2919 15.192H59.2119L59.1319 12.904H53.3879L53.2919 15.192ZM56.2199 10.392L57.7079 13.752L57.5319 14.552L58.8119 17H62.3319L56.2199 5.048L50.1239 17H53.6439L54.9399 14.44L54.7479 13.752L56.2199 10.392ZM68.5969 13.048H71.3649C71.2689 13.2933 71.1409 13.5227 70.9809 13.736C70.8315 13.9493 70.6502 14.136 70.4369 14.296C70.2235 14.4453 69.9729 14.5627 69.6849 14.648C69.3969 14.7227 69.0662 14.76 68.6929 14.76C68.0742 14.76 67.5302 14.6267 67.0609 14.36C66.5915 14.0933 66.2235 13.7093 65.9569 13.208C65.6902 12.696 65.5569 12.0933 65.5569 11.4C65.5569 10.696 65.6955 10.104 65.9729 9.624C66.2609 9.144 66.6449 8.78133 67.1249 8.536C67.6049 8.29067 68.1275 8.168 68.6929 8.168C69.2902 8.168 69.7755 8.30667 70.1489 8.584C70.5222 8.86133 70.8209 9.20267 71.0449 9.608L73.8769 8.248C73.5142 7.72533 73.0875 7.26133 72.5969 6.856C72.1062 6.44 71.5355 6.11467 70.8849 5.88C70.2449 5.63467 69.5142 5.512 68.6929 5.512C67.7862 5.512 66.9435 5.65067 66.1649 5.928C65.3862 6.19467 64.7089 6.58933 64.1329 7.112C63.5569 7.624 63.1089 8.24267 62.7889 8.968C62.4689 9.69333 62.3089 10.504 62.3089 11.4C62.3089 12.296 62.4635 13.1173 62.7729 13.864C63.0822 14.6 63.5142 15.2347 64.0689 15.768C64.6342 16.2907 65.2955 16.696 66.0529 16.984C66.8209 17.272 67.6582 17.416 68.5649 17.416C69.5462 17.416 70.4155 17.2453 71.1729 16.904C71.9302 16.552 72.5595 16.072 73.0609 15.464C73.5622 14.856 73.9302 14.1467 74.1649 13.336C74.3995 12.5253 74.4795 11.6613 74.4049 10.744H68.5969V13.048ZM78.8076 11.4C78.8076 10.792 78.925 10.2587 79.1596 9.8C79.3943 9.34133 79.725 8.984 80.1516 8.728C80.5783 8.46133 81.0796 8.328 81.6556 8.328C82.2636 8.328 82.7756 8.46133 83.1916 8.728C83.6183 8.984 83.9436 9.34133 84.1676 9.8C84.3916 10.2587 84.5036 10.792 84.5036 11.4C84.5036 11.9973 84.3863 12.5307 84.1516 13C83.917 13.4587 83.5863 13.8213 83.1596 14.088C82.7436 14.344 82.2423 14.472 81.6556 14.472C81.0796 14.472 80.5783 14.344 80.1516 14.088C79.725 13.8213 79.3943 13.4587 79.1596 13C78.925 12.5307 78.8076 11.9973 78.8076 11.4ZM75.5276 11.4C75.5276 12.2747 75.677 13.08 75.9756 13.816C76.2743 14.552 76.6956 15.192 77.2396 15.736C77.7943 16.2693 78.445 16.6853 79.1916 16.984C79.9383 17.272 80.7596 17.416 81.6556 17.416C82.5516 17.416 83.373 17.272 84.1196 16.984C84.877 16.6853 85.5276 16.2693 86.0716 15.736C86.6156 15.192 87.037 14.552 87.3356 13.816C87.6343 13.08 87.7836 12.2747 87.7836 11.4C87.7836 10.5147 87.629 9.71467 87.3196 9C87.021 8.27467 86.5943 7.656 86.0396 7.144C85.485 6.62133 84.8343 6.22133 84.0876 5.944C83.3516 5.656 82.541 5.512 81.6556 5.512C80.7916 5.512 79.9863 5.656 79.2396 5.944C78.5036 6.22133 77.8583 6.62133 77.3036 7.144C76.749 7.656 76.3116 8.27467 75.9916 9C75.6823 9.71467 75.5276 10.5147 75.5276 11.4Z" fill="url(#paint0_linear_1_15)"/>
<path d="M3.28 35.88L0.64 37.8C0.946667 38.4933 1.4 39.1267 2 39.7C2.6 40.26 3.30667 40.7 4.12 41.02C4.94667 41.3533 5.84 41.52 6.8 41.52C7.48 41.52 8.14667 41.42 8.8 41.22C9.45333 41.0333 10.0333 40.7533 10.54 40.38C11.06 39.9933 11.4667 39.5133 11.76 38.94C12.0667 38.3667 12.22 37.7067 12.22 36.96C12.22 36.4 12.1333 35.8933 11.96 35.44C11.7867 34.9867 11.54 34.5867 11.22 34.24C10.9 33.88 10.52 33.5733 10.08 33.32C9.65333 33.0533 9.18 32.8267 8.66 32.64C8.06 32.4267 7.52667 32.2333 7.06 32.06C6.60667 31.8733 6.24667 31.68 5.98 31.48C5.72667 31.2667 5.6 31.0067 5.6 30.7C5.6 30.4333 5.71333 30.22 5.94 30.06C6.16667 29.9 6.47333 29.82 6.86 29.82C7.16667 29.82 7.46667 29.88 7.76 30C8.05333 30.12 8.32667 30.2933 8.58 30.52C8.84667 30.7333 9.08 31.0067 9.28 31.34L12.2 29.72C11.9467 29.24 11.5867 28.7667 11.12 28.3C10.6533 27.82 10.06 27.4267 9.34 27.12C8.62 26.8 7.76667 26.64 6.78 26.64C5.83333 26.64 4.97333 26.8 4.2 27.12C3.42667 27.44 2.80667 27.9067 2.34 28.52C1.87333 29.12 1.64 29.86 1.64 30.74C1.64 31.4333 1.76667 32.0333 2.02 32.54C2.28667 33.0467 2.61333 33.4733 3 33.82C3.4 34.1667 3.81333 34.4533 4.24 34.68C4.66667 34.8933 5.05333 35.0667 5.4 35.2C6.10667 35.4667 6.65333 35.6933 7.04 35.88C7.44 36.0667 7.72 36.2533 7.88 36.44C8.04 36.6133 8.12 36.8333 8.12 37.1C8.12 37.4733 7.98 37.76 7.7 37.96C7.42 38.1467 7.06667 38.24 6.64 38.24C6.2 38.24 5.77333 38.1467 5.36 37.96C4.94667 37.7733 4.56667 37.5067 4.22 37.16C3.87333 36.8 3.56 36.3733 3.28 35.88ZM17.0488 41H24.1088V37.86H17.0488V41ZM17.0488 30.14H24.1088V27H17.0488V30.14ZM17.0488 35.24H23.7088V32.2H17.0488V35.24ZM14.4088 27V41H18.1288V27H14.4088ZM33.8516 36.06H37.3116C37.1916 36.3667 37.0316 36.6533 36.8316 36.92C36.6449 37.1867 36.4182 37.42 36.1516 37.62C35.8849 37.8067 35.5716 37.9533 35.2116 38.06C34.8516 38.1533 34.4382 38.2 33.9716 38.2C33.1982 38.2 32.5182 38.0333 31.9316 37.7C31.3449 37.3667 30.8849 36.8867 30.5516 36.26C30.2182 35.62 30.0516 34.8667 30.0516 34C30.0516 33.12 30.2249 32.38 30.5716 31.78C30.9316 31.18 31.4116 30.7267 32.0116 30.42C32.6116 30.1133 33.2649 29.96 33.9716 29.96C34.7182 29.96 35.3249 30.1333 35.7916 30.48C36.2582 30.8267 36.6316 31.2533 36.9116 31.76L40.4516 30.06C39.9982 29.4067 39.4649 28.8267 38.8516 28.32C38.2382 27.8 37.5249 27.3933 36.7116 27.1C35.9116 26.7933 34.9982 26.64 33.9716 26.64C32.8382 26.64 31.7849 26.8133 30.8116 27.16C29.8382 27.4933 28.9916 27.9867 28.2716 28.64C27.5516 29.28 26.9916 30.0533 26.5916 30.96C26.1916 31.8667 25.9916 32.88 25.9916 34C25.9916 35.12 26.1849 36.1467 26.5716 37.08C26.9582 38 27.4982 38.7933 28.1916 39.46C28.8982 40.1133 29.7249 40.62 30.6716 40.98C31.6316 41.34 32.6782 41.52 33.8116 41.52C35.0382 41.52 36.1249 41.3067 37.0716 40.88C38.0182 40.44 38.8049 39.84 39.4316 39.08C40.0582 38.32 40.5182 37.4333 40.8116 36.42C41.1049 35.4067 41.2049 34.3267 41.1116 33.18H33.8516V36.06ZM43.215 27V36.4C43.215 37.3467 43.3683 38.1533 43.675 38.82C43.9817 39.4867 44.4017 40.0333 44.935 40.46C45.4817 40.8733 46.1083 41.18 46.815 41.38C47.535 41.58 48.295 41.68 49.095 41.68C49.9083 41.68 50.6683 41.58 51.375 41.38C52.0817 41.18 52.7083 40.8733 53.255 40.46C53.8017 40.0333 54.2283 39.4867 54.535 38.82C54.8417 38.1533 54.995 37.3467 54.995 36.4V27H51.115V36.08C51.115 36.72 50.9483 37.24 50.615 37.64C50.2817 38.0267 49.775 38.22 49.095 38.22C48.4283 38.22 47.9283 38.0267 47.595 37.64C47.2617 37.24 47.095 36.72 47.095 36.08V27H43.215ZM61.5681 34.82L65.2281 41H69.7481L65.5481 34.82H61.5681ZM57.7681 27V41H61.6481V27H57.7681ZM60.2481 30.28H62.9481C63.3615 30.28 63.7081 30.34 63.9881 30.46C64.2681 30.58 64.4815 30.76 64.6281 31C64.7881 31.2267 64.8681 31.5067 64.8681 31.84C64.8681 32.1733 64.7881 32.46 64.6281 32.7C64.4815 32.94 64.2681 33.12 63.9881 33.24C63.7081 33.36 63.3615 33.42 62.9481 33.42H60.2481V36.36H63.2681C64.5481 36.36 65.6015 36.1667 66.4281 35.78C67.2681 35.38 67.8881 34.8267 68.2881 34.12C68.7015 33.4 68.9081 32.5867 68.9081 31.68C68.9081 30.76 68.7015 29.9533 68.2881 29.26C67.8881 28.5533 67.2681 28 66.4281 27.6C65.6015 27.2 64.5481 27 63.2681 27H60.2481V30.28ZM73.6852 38.74H81.0852L80.9852 35.88H73.8052L73.6852 38.74ZM77.3452 32.74L79.2052 36.94L78.9852 37.94L80.5852 41H84.9852L77.3452 26.06L69.7252 41H74.1252L75.7452 37.8L75.5052 36.94L77.3452 32.74ZM86.3619 27V41H90.3819V27H86.3619ZM91.6019 41C93.1885 41 94.5485 40.72 95.6819 40.16C96.8285 39.5867 97.7085 38.78 98.3219 37.74C98.9485 36.6867 99.2619 35.44 99.2619 34C99.2619 32.5467 98.9485 31.3 98.3219 30.26C97.7085 29.22 96.8285 28.42 95.6819 27.86C94.5485 27.2867 93.1885 27 91.6019 27H89.0019V30.4H91.4419C91.9085 30.4 92.3619 30.4533 92.8019 30.56C93.2552 30.6533 93.6619 30.8333 94.0219 31.1C94.3819 31.3533 94.6685 31.72 94.8819 32.2C95.1085 32.6667 95.2219 33.2667 95.2219 34C95.2219 34.7333 95.1085 35.34 94.8819 35.82C94.6685 36.2867 94.3819 36.6533 94.0219 36.92C93.6619 37.1733 93.2552 37.3533 92.8019 37.46C92.3619 37.5533 91.9085 37.6 91.4419 37.6H89.0019V41H91.6019ZM104.642 34C104.642 33.24 104.789 32.5733 105.082 32C105.376 31.4267 105.789 30.98 106.322 30.66C106.856 30.3267 107.482 30.16 108.202 30.16C108.962 30.16 109.602 30.3267 110.122 30.66C110.656 30.98 111.062 31.4267 111.342 32C111.622 32.5733 111.762 33.24 111.762 34C111.762 34.7467 111.616 35.4133 111.322 36C111.029 36.5733 110.616 37.0267 110.082 37.36C109.562 37.68 108.936 37.84 108.202 37.84C107.482 37.84 106.856 37.68 106.322 37.36C105.789 37.0267 105.376 36.5733 105.082 36C104.789 35.4133 104.642 34.7467 104.642 34ZM100.542 34C100.542 35.0933 100.729 36.1 101.102 37.02C101.476 37.94 102.002 38.74 102.682 39.42C103.376 40.0867 104.189 40.6067 105.122 40.98C106.056 41.34 107.082 41.52 108.202 41.52C109.322 41.52 110.349 41.34 111.282 40.98C112.229 40.6067 113.042 40.0867 113.722 39.42C114.402 38.74 114.929 37.94 115.302 37.02C115.676 36.1 115.862 35.0933 115.862 34C115.862 32.8933 115.669 31.8933 115.282 31C114.909 30.0933 114.376 29.32 113.682 28.68C112.989 28.0267 112.176 27.5267 111.242 27.18C110.322 26.82 109.309 26.64 108.202 26.64C107.122 26.64 106.116 26.82 105.182 27.18C104.262 27.5267 103.456 28.0267 102.762 28.68C102.069 29.32 101.522 30.0933 101.122 31C100.736 31.8933 100.542 32.8933 100.542 34Z" fill="white"/>
<defs>
<linearGradient id="paint0_linear_1_15" x1="0" y1="15" x2="100.674" y2="15" gradientUnits="userSpaceOnUse">
<stop stop-color="#FF56F6"/>
<stop offset="0.265625" stop-color="#B936EE"/>
<stop offset="0.708333" stop-color="#3BACE2"/>
<stop offset="1" stop-color="#406AFF"/>
</linearGradient>
</defs>
</svg>
